<?xml version="1.0" encoding="iso-8859-1"?>
<!-- Generator: Adobe Illustrator 16.0.4, SVG Export Plug-In . SVG Version: 6.00 Build 0)  -->
<!DOCTYPE svg PUBLIC "-//W3C//DTD SVG 1.1//EN" "http://www.w3.org/Graphics/SVG/1.1/DTD/svg11.dtd">
<svg version="1.1" id="Capa_1" xmlns="http://www.w3.org/2000/svg" xmlns:xlink="http://www.w3.org/1999/xlink" x="0px" y="0px"
	 width="32.031px" height="32.002px" viewBox="0 0 32.031 32.002" style="enable-background:new 0 0 32.031 32.002;"
	 xml:space="preserve">
<g id="Close">
	<g>
		<path d="M21.678,16.001l9.18-9.172c0.758-0.755,1.175-1.76,1.175-2.828s-0.417-2.073-1.175-2.829
			c-0.754-0.755-1.762-1.171-2.83-1.171c-1.069,0-2.075,0.416-2.832,1.171l-9.182,9.172L6.833,1.172C6.077,0.416,5.071,0,4,0
			C2.932,0,1.926,0.416,1.17,1.172c-1.561,1.56-1.562,4.097,0,5.657l9.182,9.172l-9.181,9.172c-1.562,1.561-1.562,4.098,0,5.658
			c0.756,0.755,1.762,1.171,2.831,1.171s2.075-0.416,2.831-1.172l9.181-9.172l9.181,9.171c0.757,0.755,1.762,1.172,2.83,1.172
			c1.07,0,2.076-0.416,2.832-1.172c1.562-1.561,1.562-4.098,0-5.657L21.678,16.001z M29.441,29.415
			c-0.756,0.755-2.074,0.756-2.832,0l-9.887-9.878c-0.392-0.392-1.025-0.392-1.416,0l-9.889,9.879c-0.757,0.755-2.075,0.755-2.832,0
			c-0.78-0.78-0.78-2.049,0-2.829l9.889-9.879c0.188-0.188,0.293-0.441,0.293-0.707c0-0.265-0.105-0.52-0.293-0.707l-9.89-9.879
			c-0.78-0.78-0.78-2.049,0-2.829C2.963,2.208,3.466,2,4,2c0.536,0,1.038,0.208,1.417,0.586l9.889,9.879
			c0.391,0.391,1.024,0.391,1.416,0l9.889-9.878c0.757-0.756,2.074-0.756,2.832-0.001c0.377,0.378,0.586,0.881,0.586,1.415
			s-0.209,1.036-0.586,1.414l-9.889,9.879c-0.391,0.391-0.391,1.023,0,1.414l9.889,9.878C30.223,27.366,30.223,28.635,29.441,29.415
			z"/>
	</g>
</g>
</svg>
