<?xml version="1.0" encoding="iso-8859-1"?>
<!-- Generator: Adobe Illustrator 16.0.4, SVG Export Plug-In . SVG Version: 6.00 Build 0)  -->
<!DOCTYPE svg PUBLIC "-//W3C//DTD SVG 1.1//EN" "http://www.w3.org/Graphics/SVG/1.1/DTD/svg11.dtd">
<svg version="1.1" id="Capa_1" xmlns="http://www.w3.org/2000/svg" xmlns:xlink="http://www.w3.org/1999/xlink" x="0px" y="0px"
	 width="32px" height="28px" viewBox="0 0 32 28" style="enable-background:new 0 0 32 28;" xml:space="preserve">
<g id="Folder">
	<g>
		<path d="M29,8V7c0-1.654-1.346-3-3-3H14c-0.552,0-1-0.448-1-1c0-1.654-1.346-3-3-3H6C4.346,0,3,1.346,3,3v5c-1.654,0-3,1.346-3,3
			l2,14c0,1.654,1.346,3,3,3h22c1.654,0,3-1.346,3-3l2-14C32,9.346,30.654,8,29,8z M5,3c0-0.552,0.448-1,1-1h4c0.552,0,1,0.448,1,1
			c0,1.654,1.346,3,3,3h12c0.552,0,1,0.448,1,1v1H5V3z M28,25c0,0.551-0.449,1-1,1H5c-0.551,0-1-0.449-1-1L2,11c0-0.551,0.449-1,1-1
			h26c0.551,0,1,0.449,1,1L28,25z M14.5,12H7.148c-0.706,0-1.345,0.286-1.796,0.807c-0.447,0.515-0.647,1.208-0.549,1.901
			l0.421,3.003c0.176,1.232,1.242,2.273,2.326,2.273L14.5,20c1.379,0,2.5-1.121,2.5-2.5v-3C17,13.121,15.879,12,14.5,12z M15,17.5
			c0,0.275-0.224,0.499-0.499,0.5l-6.909-0.012c-0.109-0.033-0.349-0.293-0.387-0.557L6.784,14.43
			c-0.017-0.119,0.013-0.236,0.078-0.312C6.931,14.04,7.026,14,7.148,14H14.5c0.275,0,0.5,0.225,0.5,0.5V17.5z"/>
	</g>
</g>
</svg>
