<?xml version="1.0" encoding="iso-8859-1"?>
<!-- Generator: Adobe Illustrator 16.0.4, SVG Export Plug-In . SVG Version: 6.00 Build 0)  -->
<!DOCTYPE svg PUBLIC "-//W3C//DTD SVG 1.1//EN" "http://www.w3.org/Graphics/SVG/1.1/DTD/svg11.dtd">
<svg version="1.1" id="Capa_1" xmlns="http://www.w3.org/2000/svg" xmlns:xlink="http://www.w3.org/1999/xlink" x="0px" y="0px"
	 width="32.031px" height="31.598px" viewBox="0 0 32.031 31.598" style="enable-background:new 0 0 32.031 31.598;"
	 xml:space="preserve">
<g id="Pause">
	<g>
		<path d="M12,11.807v8c0,0.553,0.447,1,1,1s1-0.447,1-1v-8c0-0.553-0.447-1-1-1S12,11.254,12,11.807z M20,19.807v-8
			c0-0.553-0.447-1-1-1s-1,0.447-1,1v8c0,0.553,0.447,1,1,1S20,20.359,20,19.807z M18.79,0.015
			c-0.552-0.093-1.063,0.271-1.158,0.812C17.537,1.371,17.9,1.89,18.443,1.985c6.715,1.176,11.588,6.981,11.588,13.821
			c0,6.825-4.873,12.631-11.586,13.804c-0.545,0.097-0.908,0.613-0.813,1.157c0.085,0.486,0.509,0.828,0.984,0.828
			c0.057,0,0.114-0.005,0.173-0.015c7.673-1.341,13.242-7.977,13.242-15.79C32.031,7.993,26.462,1.358,18.79,0.015z M14.399,0.83
			c-0.095-0.544-0.613-0.908-1.157-0.813C5.569,1.357,0,7.992,0,15.807c0,7.798,5.569,14.434,13.241,15.776
			c0.059,0.01,0.117,0.015,0.174,0.015c0.477,0,0.899-0.342,0.984-0.827c0.095-0.544-0.269-1.062-0.812-1.158
			C6.873,28.438,2,22.631,2,15.791C2,8.966,6.873,3.16,13.586,1.987C14.13,1.892,14.494,1.374,14.399,0.83z"/>
	</g>
</g>
</svg>
