<?xml version="1.0" encoding="iso-8859-1"?>
<!-- Generator: Adobe Illustrator 16.0.4, SVG Export Plug-In . SVG Version: 6.00 Build 0)  -->
<!DOCTYPE svg PUBLIC "-//W3C//DTD SVG 1.1//EN" "http://www.w3.org/Graphics/SVG/1.1/DTD/svg11.dtd">
<svg version="1.1" id="Capa_1" xmlns="http://www.w3.org/2000/svg" xmlns:xlink="http://www.w3.org/1999/xlink" x="0px" y="0px"
	 width="32.025px" height="32.031px" viewBox="0 0 32.025 32.031" style="enable-background:new 0 0 32.025 32.031;"
	 xml:space="preserve">
<g id="Play">
	<g>
		<path d="M31.19,17.631c-0.549-0.094-1.069,0.27-1.166,0.814c-1.181,6.713-7.025,11.586-13.898,11.586
			c-7.782,0-14.112-6.287-14.112-14.017C2.013,8.286,8.344,2,16.126,2c6.873,0,12.719,4.873,13.9,11.586
			c0.097,0.544,0.62,0.905,1.166,0.813c0.549-0.096,0.915-0.613,0.819-1.157C30.659,5.568,23.979,0,16.126,0
			C7.233,0,0,7.185,0,16.016c0,8.832,7.233,16.016,16.126,16.016c7.853,0,14.534-5.568,15.883-13.242
			C32.104,18.244,31.737,17.729,31.19,17.631z M13.436,11.121c-0.01-0.005-0.02-0.004-0.028-0.008
			c-0.062-0.028-0.129-0.037-0.194-0.053c-0.065-0.015-0.128-0.037-0.192-0.039c-0.011,0-0.021-0.006-0.03-0.006
			c-0.053,0-0.097,0.021-0.146,0.029c-0.07,0.011-0.138,0.017-0.205,0.041c-0.062,0.023-0.115,0.062-0.171,0.097
			c-0.053,0.033-0.106,0.061-0.152,0.103c-0.055,0.05-0.093,0.111-0.135,0.172c-0.028,0.039-0.064,0.067-0.087,0.111
			c-0.005,0.01-0.004,0.021-0.008,0.03c-0.029,0.06-0.037,0.125-0.052,0.19c-0.017,0.066-0.038,0.13-0.04,0.196
			c0,0.011-0.007,0.02-0.007,0.03v8c0,0.012,0.007,0.02,0.007,0.029c0.002,0.066,0.023,0.131,0.04,0.197
			c0.016,0.064,0.023,0.131,0.052,0.189c0.004,0.01,0.002,0.021,0.008,0.029c0.046,0.096,0.109,0.176,0.179,0.248
			c0.016,0.016,0.033,0.025,0.05,0.039c0.07,0.064,0.148,0.117,0.233,0.158c0.029,0.014,0.059,0.027,0.089,0.039
			c0.109,0.039,0.225,0.066,0.342,0.068c0.001,0,0.001,0,0.001,0h0.002c0.001,0,0.001,0,0.001,0c0.002,0,0.004-0.002,0.006-0.002
			c0.147,0,0.286-0.037,0.413-0.098c0.009-0.004,0.019-0.002,0.026-0.006l8.005-4c0.34-0.17,0.554-0.517,0.554-0.896
			c0-0.379-0.214-0.725-0.554-0.895L13.436,11.121z M13.99,18.396v-4.764l4.767,2.382L13.99,18.396z"/>
	</g>
</g>
</svg>
