<?xml version="1.0" encoding="UTF-8" standalone="no"?>
<!-- Generator: Adobe Illustrator 16.0.4, SVG Export Plug-In . SVG Version: 6.00 Build 0)  -->

<svg
   xmlns:dc="http://purl.org/dc/elements/1.1/"
   xmlns:cc="http://creativecommons.org/ns#"
   xmlns:rdf="http://www.w3.org/1999/02/22-rdf-syntax-ns#"
   xmlns:svg="http://www.w3.org/2000/svg"
   xmlns="http://www.w3.org/2000/svg"
   xmlns:sodipodi="http://sodipodi.sourceforge.net/DTD/sodipodi-0.dtd"
   xmlns:inkscape="http://www.inkscape.org/namespaces/inkscape"
   version="1.1"
   id="Capa_1"
   x="0px"
   y="0px"
   width="32px"
   height="32px"
   viewBox="0 0 32 32"
   style="enable-background:new 0 0 32 32;"
   xml:space="preserve"
   inkscape:version="0.48.5 r10040"
   sodipodi:docname="downloading3.svg"><metadata
   id="metadata12"><rdf:RDF><cc:Work
       rdf:about=""><dc:format>image/svg+xml</dc:format><dc:type
         rdf:resource="http://purl.org/dc/dcmitype/StillImage" /><dc:title></dc:title></cc:Work></rdf:RDF></metadata><defs
   id="defs10" /><sodipodi:namedview
   pagecolor="#ffffff"
   bordercolor="#666666"
   borderopacity="1"
   objecttolerance="10"
   gridtolerance="10"
   guidetolerance="10"
   inkscape:pageopacity="0"
   inkscape:pageshadow="2"
   inkscape:window-width="1920"
   inkscape:window-height="1138"
   id="namedview8"
   showgrid="false"
   inkscape:zoom="20.85965"
   inkscape:cx="15.294048"
   inkscape:cy="22.19247"
   inkscape:window-x="-8"
   inkscape:window-y="-8"
   inkscape:window-maximized="1"
   inkscape:current-layer="g4" />
<g
   id="Download">
	<g
   id="g4">
		<path
   d="m 28,17 c -2.206,0 -4,1.795 -4,4 l 0,2 c 0,0.552 -0.448,1 -1,1 L 9,24 C 8.448,24 8,23.552 8,23 L 8,21 C 8,18.795 6.206,17 4,17 1.794,17 0,18.795 0,21 l 0,8 c 0,1.654 1.346,3 3,3 l 26,0 c 1.654,0 3,-1.346 3,-3 l 0,-8 c 0,-2.205 -1.794,-4 -4,-4 z m 2,12 c 0,0.552 -0.448,1 -1,1 L 3,30 C 2.448,30 2,29.552 2,29 l 0,-8 c 0,-1.104 0.897,-2 2,-2 1.103,0 2,0.896 2,2 l 0,2 c 0,1.654 1.346,3 3,3 l 14,0 c 1.654,0 3,-1.346 3,-3 l 0,-2 c 0,-1.104 0.896,-2 2,-2 1.104,0 2,0.896 2,2 z M 18.63,20.926 c -12.42,7.382667 -6.21,3.691333 0,0 z"
   id="path6"
   inkscape:connector-curvature="0"
   sodipodi:nodetypes="sssssssssssssssssssssssssssssscc" />
	<path
   inkscape:connector-curvature="0"
   d="m 13.299816,1.039417 c 0.693,-0.69200001 1.613,-1.07400001 2.591,-1.07400001 0.979,0 1.899,0.382 2.592,1.07400001 0.042,0.043 0.08,0.089 0.113,0.137 l 7.407,7.6670001 c 1.133,1.1349999 1.133,3.1109999 0,4.2419999 -0.565,0.566 -1.318,0.879 -2.119,0.879 -0.803,0 -1.555,-0.312 -2.107,-0.865 l -2.904,-2.801 0,8.667 0.01,0 c 0,1.654 -1.346,3 -3,3 -1.654,0 -3,-1.346 -3,-3 l 0.012,0 -0.013,-8.653 -2.88,2.773 c -0.5669997,0.567 -1.3199997,0.879 -2.1219997,0.879 -0.801,0 -1.554,-0.312 -2.119,-0.878 -0.566,-0.566 -0.879,-1.319 -0.879,-2.121 0,-0.802 0.312,-1.5559999 0.866,-2.1099999 z m -6.1249997,10.632 c 0.188,0.189 0.439,0.293 0.705,0.293 0.267,0 0.518,-0.104 0.72,-0.307 L 11.481816,8.8834171 c 0.377,-0.377 0.879,-0.584 1.412,-0.584 0.533,0 1.034,0.207 1.407,0.579 0.382,0.378 0.593,0.8829999 0.593,1.4199999 l 0,8.668 c 0,0.466 0.326,0.841 0.752,0.951 0.078,0.02 0.152,0.048 0.236,0.048 0.026,0 0.049,-0.013 0.075,-0.015 0.509,-0.047 0.914,-0.463 0.914,-0.984 l 0,-8.668 c 0,-0.538 0.211,-1.0419999 0.59,-1.4169999 0.377,-0.375 0.877,-0.582 1.408,-0.582 0.534,0 1.036,0.207 1.401,0.571 l 2.907,2.8009999 c 0.188,0.189 0.439,0.293 0.705,0.293 0.267,0 0.518,-0.104 0.707,-0.294 0.377,-0.377 0.388,-1.026 -0.014,-1.425 l -7.539,-7.803 c -0.024,-0.026 -0.049,-0.054 -0.07,-0.08 -0.299,-0.256 -0.675,-0.397 -1.075,-0.397 -0.444,0 -0.861,0.174 -1.164,0.477 l -7.5519997,7.815 c -0.377,0.376 -0.379,1.037 0,1.414 z"
   id="path6-1"
   sodipodi:nodetypes="csccccsccccsccccscscccsccscsscscsscsccsccccsccc" /></g>
</g>
</svg>